<svg width="1171.500000" height="56.000000" viewBox="0 0 1171.5 56" fill="none" xmlns="http://www.w3.org/2000/svg" xmlns:xlink="http://www.w3.org/1999/xlink">
	<desc>
			Created with Pixso.
	</desc>
	<defs>
		<clipPath id="clip5_543">
			<rect id="Frame" width="24.000000" height="24.000000" transform="translate(756.500000 16.000000)" fill="white" fill-opacity="0"/>
		</clipPath>
		<clipPath id="clip5_545">
			<rect id="Frame" width="24.000000" height="24.000000" transform="translate(824.500000 16.000000)" fill="white" fill-opacity="0"/>
		</clipPath>
		<clipPath id="clip5_547">
			<rect id="Frame" width="24.000000" height="24.000000" transform="translate(892.500000 16.000000)" fill="white" fill-opacity="0"/>
		</clipPath>
		<clipPath id="clip5_549">
			<rect id="Frame" width="24.000000" height="24.000000" transform="translate(960.500000 16.000000)" fill="white" fill-opacity="0"/>
		</clipPath>
	</defs>
	<path id="ReTro" d="M9.15012 40L2.03977 40L2.03977 13.8174L13.3425 13.8174C19.1609 13.8174 23.0544 17.1396 23.0544 22.7119C23.0544 26.3506 21.3933 28.8906 18.6072 30.2354L23.9245 40L16.2077 40L11.6023 31.3604L9.15012 31.3604L9.15012 40ZM52.8733 19.5479L44.9983 19.5479L44.9983 13.8174L67.7532 13.8174L67.7532 19.5479L59.8782 19.5479L59.8782 40L52.8733 40L52.8733 19.5479ZM9.15012 19.4951L9.15012 25.832L11.655 25.832C14.1423 25.832 15.6452 24.9531 15.6452 22.7119C15.6452 20.4619 14.1423 19.4951 11.655 19.4951L9.15012 19.4951ZM44.7898 33.6631C44.1218 37.75 40.6238 40.3604 35.1745 40.3604C28.8904 40.3604 25.0495 36.5898 25.0495 30.2354C25.0495 24.1445 28.9343 20.1104 35.0251 20.1104C40.9577 20.1104 44.7898 23.9336 44.7898 30.1826L44.7898 31.8174L32.0017 31.8174L32.0017 32.125C32.0017 34.0146 33.2322 35.3945 35.3327 35.3945C36.7741 35.3945 37.9343 34.7705 38.3474 33.6631L44.7898 33.6631ZM75.5267 40L68.4691 40L68.4691 20.3652L75.3158 20.3652L75.3158 24.1006L75.5267 24.1006C76.2386 21.332 77.8734 20.1104 79.974 20.1104C80.5892 20.1104 81.1957 20.207 81.7582 20.374L81.7582 26.3945C81.055 26.1572 79.8861 26.043 79.1566 26.043C77.0736 26.043 75.5267 27.5195 75.5267 29.7695L75.5267 40ZM102.575 30.2354C102.575 36.2646 98.7874 40.3604 92.3977 40.3604C86.0081 40.3604 82.22 36.2646 82.22 30.2354C82.22 24.1973 86.0081 20.1104 92.3977 20.1104C98.7874 20.1104 102.575 24.1973 102.575 30.2354ZM35.1745 25.0674C33.4519 25.0674 32.0456 26.2275 32.0017 27.9326L38.2947 27.9326C38.2595 26.2451 36.9236 25.0674 35.1745 25.0674ZM89.4358 30.1826C89.4358 33.2588 90.5608 35.1396 92.4505 35.1396C94.2346 35.1396 95.3596 33.2588 95.3596 30.1826C95.3596 27.0977 94.2346 25.2256 92.4505 25.2256C90.5608 25.2256 89.4358 27.0977 89.4358 30.1826Z" fill="#12132D" fill-opacity="1.000000" fill-rule="evenodd"/>
	<rect id="Frame 6" rx="28.000000" width="147.000000" height="56.000000" transform="translate(1024.500000 0.000000)" fill="#797DFC" fill-opacity="1.000000"/>
	<path id="Sign In" d="M1082.31 21.1523C1082.31 21.9971 1081.56 22.6855 1080.67 22.6855C1079.77 22.6855 1079.03 21.9971 1079.03 21.1523C1079.03 20.3125 1079.77 19.624 1080.67 19.624C1081.56 19.624 1082.31 20.3125 1082.31 21.1523ZM1076.94 24.6387L1073.99 24.6387C1073.88 23.4961 1072.98 22.8271 1071.51 22.8271C1070 22.8271 1069.17 23.5156 1069.17 24.4531C1069.15 25.498 1070.21 25.9668 1071.48 26.2549L1072.78 26.5674C1075.31 27.1387 1077.13 28.4229 1077.14 30.8447C1077.13 33.5107 1075.04 35.2051 1071.49 35.2051C1067.96 35.2051 1065.71 33.5791 1065.64 30.4346L1068.61 30.4346C1068.71 31.8896 1069.86 32.627 1071.46 32.627C1073.02 32.627 1074.03 31.9043 1074.04 30.8398C1074.03 29.8584 1073.15 29.4043 1071.56 29.0186L1069.98 28.623C1067.53 28.0322 1066.01 26.8018 1066.02 24.6582C1066.01 22.0166 1068.34 20.2539 1071.53 20.2539C1074.77 20.2539 1076.9 22.0459 1076.94 24.6387ZM1114.38 20.4541L1117.45 20.4541L1117.45 35L1114.38 35L1114.38 20.4541ZM1094.83 35.1074C1094.83 37.8955 1092.61 39.3164 1089.5 39.3164C1086.56 39.3164 1084.88 37.998 1084.51 36.2793L1087.31 35.9033C1087.56 36.5625 1088.23 37.1436 1089.57 37.1436C1090.88 37.1436 1091.84 36.5625 1091.84 35.0635L1091.84 33.0664L1091.72 33.0664C1091.32 33.9697 1090.34 34.8438 1088.61 34.8438C1086.15 34.8438 1084.18 33.1543 1084.18 29.5264C1084.18 25.8105 1086.2 23.9502 1088.6 23.9502C1090.42 23.9502 1091.31 25.0342 1091.72 25.9229L1091.83 25.9229L1091.83 24.0918L1094.83 24.0918L1094.83 35.1074ZM1102.34 26.4648C1101.12 26.4648 1100.28 27.2852 1100.27 28.6914L1100.27 35L1097.25 35L1097.25 24.0918L1100.13 24.0918L1100.13 26.0156L1100.26 26.0156C1100.75 24.7461 1101.92 23.9502 1103.54 23.9502C1105.81 23.9502 1107.3 25.5127 1107.3 28.0518L1107.3 35L1104.28 35L1104.28 28.5938C1104.29 27.2607 1103.55 26.4648 1102.34 26.4648ZM1125.02 26.4648C1123.8 26.4648 1122.96 27.2852 1122.96 28.6914L1122.96 35L1119.93 35L1119.93 24.0918L1122.82 24.0918L1122.82 26.0156L1122.94 26.0156C1123.43 24.7461 1124.6 23.9502 1126.22 23.9502C1128.49 23.9502 1129.99 25.5127 1129.99 28.0518L1129.99 35L1126.96 35L1126.96 28.5938C1126.97 27.2607 1126.24 26.4648 1125.02 26.4648ZM1082.17 35L1079.14 35L1079.14 24.0918L1082.17 24.0918L1082.17 35ZM1087.27 29.5117C1087.27 31.3916 1088.08 32.5732 1089.56 32.5732C1091.02 32.5732 1091.86 31.4355 1091.86 29.5117C1091.86 27.5977 1091.03 26.3574 1089.56 26.3574C1088.06 26.3574 1087.27 27.6562 1087.27 29.5117Z" fill="#FFFFFF" fill-opacity="1.000000" fill-rule="evenodd"/>
	<rect id="Frame 2" rx="14.000000" width="55.000000" height="55.000000" transform="translate(741.000000 0.500000)" fill="#12132D" fill-opacity="0.030000"/>
	<rect id="Frame" width="24.000000" height="24.000000" transform="translate(756.500000 16.000000)" fill="#FFFFFF" fill-opacity="0"/>
	<g clip-path="url(#clip5_543)">
		<path id="Vector" d="M758.75 28L767.704 19.0452C768.144 18.606 768.856 18.606 769.295 19.0452L778.25 28M761 25.75L761 35.875C761 36.4961 761.504 37 762.125 37L766.25 37L766.25 32.125C766.25 31.5042 766.754 31 767.375 31L769.625 31C770.246 31 770.75 31.5042 770.75 32.125L770.75 37L774.875 37C775.496 37 776 36.4961 776 35.875L776 25.75M764.75 37L773 37" stroke="#12132D" stroke-opacity="0.600000" stroke-width="1.500000" stroke-linejoin="round"/>
	</g>
	<rect id="Frame 2" rx="14.000000" width="55.000000" height="55.000000" transform="translate(741.000000 0.500000)" stroke="#030712" stroke-opacity="0.100000" stroke-width="1.000000"/>
	<rect id="Frame 3" rx="14.000000" width="55.000000" height="55.000000" transform="translate(809.000000 0.500000)" fill="#12132D" fill-opacity="0.030000"/>
	<rect id="Frame" width="24.000000" height="24.000000" transform="translate(824.500000 16.000000)" fill="#FFFFFF" fill-opacity="0"/>
	<g clip-path="url(#clip5_545)">
		<path id="Vector" d="M844 23.125L841.362 20.4871L843.049 18.7991C843.401 18.4473 843.878 18.2498 844.375 18.2498C844.872 18.2498 845.349 18.4473 845.701 18.7991C846.053 19.1506 846.25 19.6277 846.25 20.125C846.25 20.6223 846.053 21.0994 845.701 21.4509L831.332 35.8201C830.803 36.3484 830.151 36.7368 829.435 36.95L826.75 37.75L827.55 35.0649C827.763 34.3486 828.152 33.6968 828.68 33.168L841.363 20.4871L841.362 20.4871" stroke="#12132D" stroke-opacity="0.600000" stroke-width="1.500000" stroke-linejoin="round"/>
	</g>
	<rect id="Frame 3" rx="14.000000" width="55.000000" height="55.000000" transform="translate(809.000000 0.500000)" stroke="#030712" stroke-opacity="0.100000" stroke-width="1.000000"/>
	<rect id="Frame 4" rx="14.000000" width="55.000000" height="55.000000" transform="translate(877.000000 0.500000)" fill="#12132D" fill-opacity="0.030000"/>
	<rect id="Frame" width="24.000000" height="24.000000" transform="translate(892.500000 16.000000)" fill="#FFFFFF" fill-opacity="0"/>
	<g clip-path="url(#clip5_547)">
		<path id="Vector" d="M910.5 23.5L910.5 26.5L910.5 29.5M910.5 26.5L913.5 26.5M910.5 26.5L907.5 26.5M904.261 24.7615C903.629 25.3945 902.77 25.75 901.875 25.75C900.98 25.75 900.121 25.3945 899.489 24.7615C898.856 24.1287 898.5 23.27 898.5 22.375C898.5 21.48 898.856 20.6213 899.489 19.9885C900.121 19.3555 900.98 19 901.875 19C902.77 19 903.629 19.3555 904.261 19.9885C904.894 20.6213 905.25 21.48 905.25 22.375C905.25 23.27 904.894 24.1287 904.261 24.7615ZM895.5 35.125C895.5 33.4343 896.172 31.8127 897.367 30.6172C898.563 29.4216 900.184 28.75 901.875 28.75C903.566 28.75 905.187 29.4216 906.383 30.6172C907.578 31.8127 908.25 33.4343 908.25 35.125L908.25 35.2339C906.326 36.3931 904.121 37.0039 901.874 37C899.543 37 897.362 36.355 895.5 35.2339L895.5 35.2351L895.5 35.125Z" stroke="#12132D" stroke-opacity="0.600000" stroke-width="1.500000" stroke-linejoin="round"/>
	</g>
	<rect id="Frame 4" rx="14.000000" width="55.000000" height="55.000000" transform="translate(877.000000 0.500000)" stroke="#030712" stroke-opacity="0.100000" stroke-width="1.000000"/>
	<rect id="Frame 5" rx="14.000000" width="55.000000" height="55.000000" transform="translate(945.000000 0.500000)" fill="#12132D" fill-opacity="0.030000"/>
	<rect id="Frame" width="24.000000" height="24.000000" transform="translate(960.500000 16.000000)" fill="#FFFFFF" fill-opacity="0"/>
	<g clip-path="url(#clip5_549)">
		<path id="Vector" d="M963.5 19L963.5 20.5L963.5 31L963.5 37M963.5 31L966.27 30.3069C968.354 29.7861 970.556 30.0281 972.478 30.989L972.586 31.043C974.469 31.9841 976.623 32.2354 978.672 31.7529L981.786 31.021C981.405 27.5317 981.403 24.0115 981.781 20.522L978.671 21.2539C976.622 21.7358 974.469 21.4844 972.586 20.543L972.478 20.489C970.556 19.5281 968.354 19.2861 966.27 19.8069L963.5 20.5" stroke="#12132D" stroke-opacity="0.600000" stroke-width="1.500000" stroke-linejoin="round" stroke-linecap="round"/>
	</g>
	<rect id="Frame 5" rx="14.000000" width="55.000000" height="55.000000" transform="translate(945.000000 0.500000)" stroke="#030712" stroke-opacity="0.100000" stroke-width="1.000000"/>
</svg>
